L<?xml version="1.0" standalone="no"?>
<!DOCTYPE svg PUBLIC "-//W3C//DTD SVG 20010904//EN"
 "http://www.w3.org/TR/2001/REC-SVG-20010904/DTD/svg10.dtd">
<svg version="1.0" xmlns="http://www.w3.org/2000/svg"
 width="1196.000000pt" height="1080.000000pt" viewBox="0 0 1196.000000 1080.000000"
 preserveAspectRatio="xMidYMid meet">

<g transform="translate(0.000000,1080.000000) scale(0.100000,-0.100000)"
fill="#000000" stroke="none">
<path d="M1312 5742 c-9 -7 -12 -83 -10 -348 l3 -339 43 -3 42 -3 -2 348 -3
348 -30 3 c-16 1 -36 -2 -43 -6z"/>
<path d="M5849 5737 c-146 -54 -204 -158 -203 -357 2 -165 44 -253 148 -308
45 -24 62 -27 151 -27 89 0 106 3 151 27 105 55 153 143 161 298 10 175 -35
287 -137 344 -47 26 -65 31 -145 33 -58 2 -103 -2 -126 -10z m195 -81 c43 -18
92 -78 105 -132 16 -64 14 -213 -5 -266 -19 -59 -76 -115 -128 -129 -86 -23
-192 7 -230 66 -30 46 -49 144 -43 231 7 121 43 187 122 228 37 20 134 21 179
2z"/>
<path d="M1831 5726 c-8 -9 -11 -108 -9 -342 l3 -329 42 -3 43 -3 2 293 3 292
143 -269 c79 -149 153 -280 165 -292 24 -27 97 -32 116 -9 8 9 11 108 9 342
l-3 329 -42 3 -43 3 -2 -278 -3 -278 -138 260 c-76 143 -146 268 -154 278 -20
21 -115 24 -132 3z"/>
<path d="M2707 5734 c-4 -4 -7 -20 -7 -36 l0 -28 105 0 105 0 2 -307 3 -308
42 -3 43 -3 2 308 3 308 105 5 105 5 0 30 0 30 -251 3 c-138 1 -253 -1 -257
-4z"/>
<path d="M3572 5728 c-17 -17 -17 -649 0 -666 8 -8 65 -12 189 -12 169 0 178
1 184 20 3 11 3 29 0 40 -6 19 -15 20 -151 20 l-145 0 3 123 3 122 123 3 122
3 0 34 0 35 -125 0 -126 0 3 108 3 107 143 3 142 3 0 34 0 35 -178 0 c-125 0
-182 -4 -190 -12z"/>
<path d="M4351 5726 c-8 -9 -11 -108 -9 -342 l3 -329 43 -3 42 -3 0 155 0 156
46 0 c59 0 108 -24 133 -64 11 -17 38 -79 61 -138 l41 -108 45 0 c37 0 44 3
44 19 0 37 -99 254 -130 286 l-30 31 37 25 c57 37 83 82 83 146 0 62 -17 100
-60 136 -44 37 -89 47 -221 47 -87 0 -119 -4 -128 -14z m231 -66 c53 -15 78
-51 78 -112 0 -42 -4 -54 -30 -78 -33 -31 -67 -40 -146 -40 l-54 0 0 120 0
120 58 0 c31 0 74 -5 94 -10z"/>
<path d="M6671 5726 c-8 -9 -11 -108 -9 -342 l3 -329 43 -3 42 -3 0 155 0 156
46 0 c59 0 108 -24 133 -64 11 -17 38 -79 61 -138 l41 -108 45 0 c37 0 44 3
44 19 0 37 -99 254 -130 286 l-30 31 37 25 c57 37 83 82 83 146 0 62 -17 100
-60 136 -44 37 -89 47 -221 47 -87 0 -119 -4 -128 -14z m231 -66 c53 -15 78
-51 78 -112 0 -42 -4 -54 -30 -78 -33 -31 -67 -40 -146 -40 l-54 0 0 120 0
120 58 0 c31 0 74 -5 94 -10z"/>
<path d="M6198 4600 c-45 -13 -86 -49 -115 -98 -25 -42 -28 -57 -28 -137 0
-73 4 -98 22 -131 80 -149 280 -151 363 -4 22 39 25 57 25 135 0 73 -4 98 -22
130 -50 94 -146 135 -245 105z m161 -50 c46 -32 81 -110 81 -181 0 -142 -76
-227 -196 -217 -98 8 -155 78 -162 200 -6 102 40 189 118 221 34 14 126 1 159
-23z"/>
<path d="M5700 4365 c0 -202 2 -235 15 -235 12 0 15 19 15 115 l0 115 110 0
c91 0 110 3 110 15 0 12 -19 15 -110 15 l-110 0 0 90 0 90 120 0 c100 0 120 3
120 15 0 13 -22 15 -135 15 l-135 0 0 -235z"/>
<path d="M6580 4365 c0 -202 2 -235 15 -235 12 0 15 18 15 105 l0 105 40 0
c38 0 42 -4 121 -102 45 -57 84 -105 85 -106 1 -2 10 -2 19 0 13 2 -2 27 -63
104 l-80 101 38 12 c75 22 116 104 86 175 -22 54 -76 75 -188 76 l-88 0 0
-235z m205 189 c57 -27 68 -101 22 -151 -22 -24 -106 -46 -159 -41 l-33 3 -3
103 -3 102 72 0 c44 0 84 -6 104 -16z"/>
<path d="M6980 4366 c0 -202 2 -236 15 -236 12 0 15 33 17 218 l3 217 92 -215
c67 -156 96 -215 108 -215 12 0 39 52 96 190 44 105 86 204 94 220 12 26 13 3
14 -192 1 -142 5 -223 11 -223 6 0 10 85 10 236 l0 235 -22 -3 c-19 -3 -37
-36 -112 -217 -70 -165 -92 -209 -98 -195 -5 11 -46 107 -92 214 -76 179 -85
195 -109 198 l-27 3 0 -235z"/>
<path d="M7619 4365 c-79 -192 -93 -235 -79 -235 12 0 26 24 50 85 l33 85 108
0 107 0 34 -85 c24 -62 38 -85 51 -85 16 0 16 2 2 38 -9 20 -53 126 -98 235
-56 136 -86 197 -97 197 -10 0 -45 -73 -111 -235z m201 -36 c0 -5 -40 -9 -90
-9 -57 0 -90 4 -90 11 0 5 16 49 36 97 20 48 40 98 46 112 8 22 14 14 54 -88
24 -63 44 -118 44 -123z"/>
</g>
</svg>
